<svg width="60" height="60" viewBox="0 0 118 116" fill="none" xmlns="http://www.w3.org/2000/svg">
<path id="Vector" fill-rule="evenodd" clip-rule="evenodd" d="M118 58C118 90.0325 91.5848 116 59 116C26.4152 116 0 90.0325 0 58C0 25.9675 26.4152 0 59 0C91.5848 0 118 25.9675 118 58ZM59 108.75C87.5117 108.75 110.625 86.0284 110.625 58C110.625 29.9716 87.5117 7.25 59 7.25C30.4883 7.25 7.375 29.9716 7.375 58C7.375 86.0284 30.4883 108.75 59 108.75ZM58.5391 100.622C82.7231 100.622 102.328 81.5454 102.328 58.0139C102.328 34.4824 82.7231 15.4062 58.5391 15.4062C34.3551 15.4062 14.75 34.4824 14.75 58.0139C14.75 81.5454 34.3551 100.622 58.5391 100.622ZM68.2616 32.3721H68.6047V32.3755C70.6951 32.4175 72.7603 32.8425 74.6938 33.6298C75.6692 34.027 76.6019 34.5126 77.4804 35.0791C78.4387 35.697 79.3325 36.4111 80.1468 37.2116C81.7075 38.746 82.9456 40.5675 83.7903 42.5722C84.635 44.5769 85.0698 46.7255 85.0698 48.8954C85.0698 51.0652 84.635 53.2138 83.7903 55.2185C82.9456 57.2233 81.7075 59.0447 80.1468 60.5791C79.3325 61.3796 78.4387 62.0937 77.4804 62.7116C76.6019 63.2781 75.6692 63.7637 74.6938 64.1609C72.7603 64.9481 70.6951 65.3732 68.6047 65.4152V65.4186H68.2616H32.2442V60.0233H68.6047V60.031C69.9759 59.9902 71.3293 59.7049 72.5986 59.1881C73.9736 58.6282 75.2229 57.8076 76.2752 56.7731C77.3275 55.7385 78.1624 54.5104 78.7318 53.1587C79.3013 51.8071 79.5945 50.3584 79.5945 48.8954C79.5945 47.4323 79.3013 45.9836 78.7318 44.6319C78.1624 43.2803 77.3275 42.0522 76.2752 41.0176C75.2229 39.9831 73.9736 39.1625 72.5986 38.6026C71.3293 38.0858 69.9759 37.8005 68.6047 37.7596V37.7674H32.2442V32.3721H68.2616ZM51.4535 40.4652V57.3256H57.6279V40.4652H51.4535ZM51.4535 68.1163V83.6279H57.6279V68.1163H51.4535Z" fill="#FFC857"/>
</svg>
